<svg xmlns="http://www.w3.org/2000/svg" width="160" height="160" viewBox="0 0 160 160" role="img" aria-label="Sample boy avatar">
  <defs>
    <linearGradient id="bg" x1="0" y1="0" x2="1" y2="1">
      <stop offset="0%" stop-color="#f8c18c" />
      <stop offset="100%" stop-color="#f0a86a" />
    </linearGradient>
  </defs>
  <rect width="160" height="160" rx="28" fill="url(#bg)" />
  <circle cx="80" cy="70" r="38" fill="#ffd7b1" />
  <path d="M42 64c6-20 25-30 38-30s32 10 38 30c-10-6-21-9-38-9s-28 3-38 9z" fill="#2b1b0e" />
  <circle cx="66" cy="72" r="4" fill="#3a2a1a" />
  <circle cx="94" cy="72" r="4" fill="#3a2a1a" />
  <path d="M68 90c8 6 16 6 24 0" fill="none" stroke="#3a2a1a" stroke-width="4" stroke-linecap="round" />
  <path d="M28 156c6-26 28-44 52-44h0c24 0 46 18 52 44" fill="#3a8bd4" />
  <path d="M56 112c8 10 40 10 48 0" fill="#2f6fb0" />
</svg>
